<svg width="16" height="16" viewBox="0 0 16 16" fill="none" xmlns="http://www.w3.org/2000/svg">
<path d="M3.20908 3.20865C3.27541 3.14214 3.35422 3.08938 3.44098 3.05337C3.52775 3.01737 3.62076 2.99884 3.7147 2.99884C3.80863 2.99884 3.90164 3.01737 3.98841 3.05337C4.07517 3.08938 4.15398 3.14214 4.22032 3.20865L7.99961 6.98937L11.7789 3.20865C11.8453 3.14225 11.9241 3.08958 12.0109 3.05364C12.0976 3.01771 12.1906 2.99921 12.2845 2.99921C12.3784 2.99921 12.4714 3.01771 12.5582 3.05364C12.6449 3.08958 12.7237 3.14225 12.7901 3.20865C12.8565 3.27505 12.9092 3.35387 12.9451 3.44063C12.9811 3.52738 12.9996 3.62037 12.9996 3.71427C12.9996 3.80817 12.9811 3.90115 12.9451 3.98791C12.9092 4.07466 12.8565 4.15349 12.7901 4.21989L9.00942 7.99918L12.7901 11.7785C12.8565 11.8449 12.9092 11.9237 12.9451 12.0105C12.9811 12.0972 12.9996 12.1902 12.9996 12.2841C12.9996 12.378 12.9811 12.471 12.9451 12.5577C12.9092 12.6445 12.8565 12.7233 12.7901 12.7897C12.7237 12.8561 12.6449 12.9088 12.5582 12.9447C12.4714 12.9807 12.3784 12.9991 12.2845 12.9991C12.1906 12.9991 12.0976 12.9807 12.0109 12.9447C11.9241 12.9088 11.8453 12.8561 11.7789 12.7897L7.99961 9.00899L4.22032 12.7897C4.15392 12.8561 4.07509 12.9088 3.98834 12.9447C3.90158 12.9807 3.8086 12.9991 3.7147 12.9991C3.62079 12.9991 3.52781 12.9807 3.44106 12.9447C3.3543 12.9088 3.27548 12.8561 3.20908 12.7897C3.14268 12.7233 3.09001 12.6445 3.05407 12.5577C3.01814 12.471 2.99964 12.378 2.99964 12.2841C2.99964 12.1902 3.01814 12.0972 3.05407 12.0105C3.09001 11.9237 3.14268 11.8449 3.20908 11.7785L6.9898 7.99918L3.20908 4.21989C3.14257 4.15355 3.0898 4.07474 3.0538 3.98798C3.0178 3.90122 2.99927 3.8082 2.99927 3.71427C2.99927 3.62033 3.0178 3.52732 3.0538 3.44056C3.0898 3.3538 3.14257 3.27499 3.20908 3.20865Z" fill="#212529"/>
</svg>
